<mxfile host="app.diagrams.net" modified="2023-10-16T20:47:17.668Z" agent="Mozilla/5.0 (Windows NT 10.0; Win64; x64) AppleWebKit/537.36 (KHTML, like Gecko) Chrome/117.0.0.0 Safari/537.36" etag="6YclBvDxJPRz2S53wAjo" version="22.0.4" type="device" pages="2">
  <diagram name="StrÃ¡nka-1" id="_LzcugmzjUjEcDQFLvvL">
    <mxGraphModel dx="2100" dy="1084" grid="1" gridSize="10" guides="1" tooltips="1" connect="1" arrows="1" fold="1" page="1" pageScale="1" pageWidth="827" pageHeight="1169" math="0" shadow="0">
      <root>
        <mxCell id="0" />
        <mxCell id="1" parent="0" />
        <mxCell id="SDcIFEVYOIYipMuue3Xe-20" value="" style="verticalLabelPosition=bottom;outlineConnect=0;align=center;dashed=0;html=1;verticalAlign=top;shape=mxgraph.pid2misc.column;columnType=common" parent="1" vertex="1">
          <mxGeometry x="960" y="390" width="300" height="410" as="geometry" />
        </mxCell>
        <mxCell id="SDcIFEVYOIYipMuue3Xe-4" value="" style="verticalLabelPosition=bottom;outlineConnect=0;align=center;dashed=0;html=1;verticalAlign=top;shape=mxgraph.pid2misc.column;columnType=common" parent="1" vertex="1">
          <mxGeometry x="971.25" y="400" width="277.5" height="390" as="geometry" />
        </mxCell>
        <mxCell id="SDcIFEVYOIYipMuue3Xe-6" value="&lt;font style=&quot;font-size: 17px;&quot;&gt;V02.05&lt;/font&gt;" style="verticalLabelPosition=bottom;align=center;html=1;verticalAlign=top;pointerEvents=1;dashed=0;shape=mxgraph.pid2valves.valve;valveType=threeWay;actuator=none;direction=west;" parent="1" vertex="1">
          <mxGeometry x="730" y="700" width="100" height="80" as="geometry" />
        </mxCell>
        <mxCell id="SDcIFEVYOIYipMuue3Xe-7" value="&lt;font style=&quot;font-size: 17px;&quot;&gt;V01.01&lt;/font&gt;" style="verticalLabelPosition=bottom;align=center;html=1;verticalAlign=top;pointerEvents=1;dashed=0;shape=mxgraph.pid2valves.valve;valveType=gate;actuator=motor" parent="1" vertex="1">
          <mxGeometry x="810" y="250" width="100" height="100" as="geometry" />
        </mxCell>
        <mxCell id="SDcIFEVYOIYipMuue3Xe-8" value="&lt;font style=&quot;font-size: 17px;&quot;&gt;V02.02&lt;/font&gt;" style="verticalLabelPosition=bottom;align=center;html=1;verticalAlign=top;pointerEvents=1;dashed=0;shape=mxgraph.pid2valves.valve;valveType=gate;actuator=man" parent="1" vertex="1">
          <mxGeometry x="510" y="680" width="100" height="100" as="geometry" />
        </mxCell>
        <mxCell id="SDcIFEVYOIYipMuue3Xe-9" value="" style="verticalLabelPosition=bottom;align=center;html=1;verticalAlign=top;pointerEvents=1;dashed=0;shape=mxgraph.pid2valves.valve;valveType=angleGlobe;actuator=man" parent="1" vertex="1">
          <mxGeometry x="1430" y="420" width="100" height="120" as="geometry" />
        </mxCell>
        <mxCell id="SDcIFEVYOIYipMuue3Xe-10" value="M" style="dashed=0;outlineConnect=0;align=center;html=1;shape=mxgraph.pid.engines.electric_motor_(ac);fontSize=45;" parent="1" vertex="1">
          <mxGeometry x="1060" y="60" width="100" height="100" as="geometry" />
        </mxCell>
        <mxCell id="SDcIFEVYOIYipMuue3Xe-16" style="edgeStyle=orthogonalEdgeStyle;rounded=0;orthogonalLoop=1;jettySize=auto;html=1;exitX=0.5;exitY=0;exitDx=0;exitDy=0;exitPerimeter=0;entryX=0.5;entryY=1;entryDx=0;entryDy=0;entryPerimeter=0;strokeColor=default;endArrow=none;endFill=0;" parent="1" source="SDcIFEVYOIYipMuue3Xe-11" target="SDcIFEVYOIYipMuue3Xe-10" edge="1">
          <mxGeometry relative="1" as="geometry" />
        </mxCell>
        <mxCell id="SDcIFEVYOIYipMuue3Xe-17" style="edgeStyle=orthogonalEdgeStyle;rounded=0;orthogonalLoop=1;jettySize=auto;html=1;exitX=0.5;exitY=1;exitDx=0;exitDy=0;exitPerimeter=0;strokeColor=default;endArrow=none;endFill=0;" parent="1" source="SDcIFEVYOIYipMuue3Xe-11" target="SDcIFEVYOIYipMuue3Xe-4" edge="1">
          <mxGeometry relative="1" as="geometry" />
        </mxCell>
        <mxCell id="SDcIFEVYOIYipMuue3Xe-11" value="G" style="dashed=0;outlineConnect=0;align=center;html=1;shape=mxgraph.pid.engines.gear;fontSize=45;" parent="1" vertex="1">
          <mxGeometry x="1060" y="260" width="100" height="100" as="geometry" />
        </mxCell>
        <mxCell id="SDcIFEVYOIYipMuue3Xe-29" style="edgeStyle=orthogonalEdgeStyle;rounded=0;orthogonalLoop=1;jettySize=auto;html=1;exitX=0.5;exitY=0;exitDx=0;exitDy=0;exitPerimeter=0;strokeColor=default;endArrow=none;endFill=0;" parent="1" source="SDcIFEVYOIYipMuue3Xe-12" target="SDcIFEVYOIYipMuue3Xe-4" edge="1">
          <mxGeometry relative="1" as="geometry" />
        </mxCell>
        <mxCell id="SDcIFEVYOIYipMuue3Xe-12" value="" style="shape=mxgraph.pid.agitators.agitator_(propeller);html=1;pointerEvents=1;align=center;verticalLabelPosition=bottom;verticalAlign=top;dashed=0;" parent="1" vertex="1">
          <mxGeometry x="1064" y="569" width="92" height="132" as="geometry" />
        </mxCell>
        <mxCell id="SDcIFEVYOIYipMuue3Xe-38" style="edgeStyle=orthogonalEdgeStyle;rounded=0;orthogonalLoop=1;jettySize=auto;html=1;exitX=0;exitY=0.5;exitDx=0;exitDy=0;exitPerimeter=0;entryX=1.032;entryY=0.699;entryDx=0;entryDy=0;entryPerimeter=0;strokeColor=default;endArrow=none;endFill=0;" parent="1" source="SDcIFEVYOIYipMuue3Xe-13" target="SDcIFEVYOIYipMuue3Xe-37" edge="1">
          <mxGeometry relative="1" as="geometry" />
        </mxCell>
        <mxCell id="SDcIFEVYOIYipMuue3Xe-13" value="&lt;font style=&quot;font-size: 17px;&quot;&gt;P02.01A&lt;/font&gt;" style="shape=mxgraph.pid.pumps_-_iso.pump_(liquid);html=1;pointerEvents=1;align=center;verticalLabelPosition=bottom;verticalAlign=top;dashed=0;" parent="1" vertex="1">
          <mxGeometry x="350" y="700" width="100" height="100" as="geometry" />
        </mxCell>
        <mxCell id="SDcIFEVYOIYipMuue3Xe-19" value="&lt;table cellpadding=&quot;4&quot; cellspacing=&quot;0&quot; border=&quot;0&quot; style=&quot;width: 100%; height: 100%; font-size: 17px;&quot;&gt;&lt;tbody&gt;&lt;tr&gt;&lt;td&gt;&lt;font style=&quot;font-size: 17px;&quot;&gt;TC&lt;/font&gt;&lt;/td&gt;&lt;/tr&gt;&lt;tr&gt;&lt;td&gt;T01.01&lt;/td&gt;&lt;/tr&gt;&lt;/tbody&gt;&lt;/table&gt; " style="html=1;outlineConnect=0;align=center;dashed=0;aspect=fixed;shape=mxgraph.pid2inst.discInst;mounting=room" parent="1" vertex="1">
          <mxGeometry x="985" y="555.5" width="79" height="79" as="geometry" />
        </mxCell>
        <mxCell id="SDcIFEVYOIYipMuue3Xe-33" value="" style="edgeStyle=none;orthogonalLoop=1;jettySize=auto;html=1;rounded=0;strokeColor=default;endArrow=none;endFill=0;" parent="1" edge="1">
          <mxGeometry width="100" relative="1" as="geometry">
            <mxPoint x="560" y="320" as="sourcePoint" />
            <mxPoint x="810" y="320" as="targetPoint" />
            <Array as="points" />
          </mxGeometry>
        </mxCell>
        <mxCell id="SDcIFEVYOIYipMuue3Xe-37" value="&lt;font style=&quot;font-size: 17px;&quot;&gt;V02.01&lt;/font&gt;" style="verticalLabelPosition=bottom;align=center;html=1;verticalAlign=top;pointerEvents=1;dashed=0;shape=mxgraph.pid2valves.valve;valveType=gate;actuator=man" parent="1" vertex="1">
          <mxGeometry x="190" y="680" width="100" height="100" as="geometry" />
        </mxCell>
        <mxCell id="SDcIFEVYOIYipMuue3Xe-39" value="&lt;font style=&quot;font-size: 17px;&quot;&gt;V02.04&lt;/font&gt;" style="verticalLabelPosition=bottom;align=center;html=1;verticalAlign=top;pointerEvents=1;dashed=0;shape=mxgraph.pid2valves.valve;valveType=gate;actuator=man" parent="1" vertex="1">
          <mxGeometry x="510" y="830" width="100" height="100" as="geometry" />
        </mxCell>
        <mxCell id="SDcIFEVYOIYipMuue3Xe-41" style="edgeStyle=orthogonalEdgeStyle;rounded=0;orthogonalLoop=1;jettySize=auto;html=1;exitX=0;exitY=0.5;exitDx=0;exitDy=0;exitPerimeter=0;entryX=1.032;entryY=0.699;entryDx=0;entryDy=0;entryPerimeter=0;strokeColor=default;endArrow=none;endFill=0;" parent="1" source="SDcIFEVYOIYipMuue3Xe-42" target="SDcIFEVYOIYipMuue3Xe-43" edge="1">
          <mxGeometry relative="1" as="geometry" />
        </mxCell>
        <mxCell id="SDcIFEVYOIYipMuue3Xe-42" value="&lt;font style=&quot;font-size: 17px;&quot;&gt;P02.01B&lt;/font&gt;" style="shape=mxgraph.pid.pumps_-_iso.pump_(liquid);html=1;pointerEvents=1;align=center;verticalLabelPosition=bottom;verticalAlign=top;dashed=0;" parent="1" vertex="1">
          <mxGeometry x="350" y="850" width="100" height="100" as="geometry" />
        </mxCell>
        <mxCell id="SDcIFEVYOIYipMuue3Xe-43" value="&lt;font style=&quot;font-size: 17px;&quot;&gt;V02.03&lt;/font&gt;" style="verticalLabelPosition=bottom;align=center;html=1;verticalAlign=top;pointerEvents=1;dashed=0;shape=mxgraph.pid2valves.valve;valveType=gate;actuator=man" parent="1" vertex="1">
          <mxGeometry x="190" y="830" width="100" height="100" as="geometry" />
        </mxCell>
        <mxCell id="SDcIFEVYOIYipMuue3Xe-44" value="" style="edgeStyle=none;orthogonalLoop=1;jettySize=auto;html=1;rounded=0;strokeColor=default;endArrow=none;endFill=0;exitX=1.006;exitY=0.698;exitDx=0;exitDy=0;exitPerimeter=0;" parent="1" source="SDcIFEVYOIYipMuue3Xe-8" edge="1">
          <mxGeometry width="100" relative="1" as="geometry">
            <mxPoint x="620" y="749" as="sourcePoint" />
            <mxPoint x="730" y="749" as="targetPoint" />
            <Array as="points" />
          </mxGeometry>
        </mxCell>
        <mxCell id="SDcIFEVYOIYipMuue3Xe-45" value="" style="edgeStyle=none;orthogonalLoop=1;jettySize=auto;html=1;rounded=0;strokeColor=default;endArrow=none;endFill=0;" parent="1" edge="1">
          <mxGeometry width="100" relative="1" as="geometry">
            <mxPoint x="610" y="899.8200000000002" as="sourcePoint" />
            <mxPoint x="650" y="750" as="targetPoint" />
            <Array as="points">
              <mxPoint x="650" y="900" />
            </Array>
          </mxGeometry>
        </mxCell>
        <mxCell id="SDcIFEVYOIYipMuue3Xe-46" value="" style="edgeStyle=none;orthogonalLoop=1;jettySize=auto;html=1;rounded=0;strokeColor=default;endArrow=none;endFill=0;" parent="1" edge="1">
          <mxGeometry width="100" relative="1" as="geometry">
            <mxPoint x="100" y="749" as="sourcePoint" />
            <mxPoint x="190" y="749" as="targetPoint" />
            <Array as="points" />
          </mxGeometry>
        </mxCell>
        <mxCell id="SDcIFEVYOIYipMuue3Xe-47" value="" style="edgeStyle=none;orthogonalLoop=1;jettySize=auto;html=1;rounded=0;strokeColor=default;endArrow=none;endFill=0;" parent="1" edge="1">
          <mxGeometry width="100" relative="1" as="geometry">
            <mxPoint x="150" y="750" as="sourcePoint" />
            <mxPoint x="190" y="899" as="targetPoint" />
            <Array as="points">
              <mxPoint x="150" y="899" />
            </Array>
          </mxGeometry>
        </mxCell>
        <mxCell id="SDcIFEVYOIYipMuue3Xe-48" value="" style="edgeStyle=none;orthogonalLoop=1;jettySize=auto;html=1;rounded=0;strokeColor=default;endArrow=none;endFill=0;" parent="1" edge="1">
          <mxGeometry width="100" relative="1" as="geometry">
            <mxPoint x="830" y="750" as="sourcePoint" />
            <mxPoint x="960" y="750" as="targetPoint" />
            <Array as="points" />
          </mxGeometry>
        </mxCell>
        <mxCell id="SDcIFEVYOIYipMuue3Xe-49" value="" style="edgeStyle=none;orthogonalLoop=1;jettySize=auto;html=1;rounded=0;strokeColor=default;endArrow=none;endFill=0;" parent="1" edge="1">
          <mxGeometry width="100" relative="1" as="geometry">
            <mxPoint x="100" y="490" as="sourcePoint" />
            <mxPoint x="960" y="490" as="targetPoint" />
            <Array as="points" />
          </mxGeometry>
        </mxCell>
        <mxCell id="SDcIFEVYOIYipMuue3Xe-50" value="" style="edgeStyle=none;orthogonalLoop=1;jettySize=auto;html=1;rounded=0;strokeColor=default;endArrow=none;endFill=0;" parent="1" edge="1">
          <mxGeometry width="100" relative="1" as="geometry">
            <mxPoint x="780" y="490" as="sourcePoint" />
            <mxPoint x="779.6" y="700" as="targetPoint" />
            <Array as="points" />
          </mxGeometry>
        </mxCell>
        <mxCell id="SDcIFEVYOIYipMuue3Xe-52" value="" style="edgeStyle=none;orthogonalLoop=1;jettySize=auto;html=1;rounded=0;strokeColor=default;endArrow=none;endFill=0;exitX=0.999;exitY=0.7;exitDx=0;exitDy=0;exitPerimeter=0;" parent="1" source="SDcIFEVYOIYipMuue3Xe-7" edge="1">
          <mxGeometry width="100" relative="1" as="geometry">
            <mxPoint x="920" y="320" as="sourcePoint" />
            <mxPoint x="990" y="410" as="targetPoint" />
            <Array as="points">
              <mxPoint x="990" y="320" />
            </Array>
          </mxGeometry>
        </mxCell>
        <mxCell id="SDcIFEVYOIYipMuue3Xe-53" value="" style="verticalLabelPosition=bottom;align=center;html=1;verticalAlign=top;pointerEvents=1;dashed=0;shape=mxgraph.pid2valves.valve;valveType=gate;actuator=man;direction=south;" parent="1" vertex="1">
          <mxGeometry x="1080" y="850" width="100" height="100" as="geometry" />
        </mxCell>
        <mxCell id="SDcIFEVYOIYipMuue3Xe-54" value="&lt;p style=&quot;line-height: 100%; font-size: 17px;&quot;&gt;&lt;/p&gt;&lt;table style=&quot;border-color: var(--border-color); width: 80px; height: 110px; font-size: 17px;&quot; cellpadding=&quot;0&quot; cellspacing=&quot;0&quot;&gt;&lt;tbody style=&quot;border-color: var(--border-color);&quot;&gt;&lt;tr style=&quot;border-color: var(--border-color);&quot;&gt;&lt;td style=&quot;border-color: var(--border-color);&quot; height=&quot;25&quot;&gt;&lt;font style=&quot;border-color: var(--border-color);&quot;&gt;TC&lt;/font&gt;&lt;/td&gt;&lt;/tr&gt;&lt;tr style=&quot;border-color: var(--border-color);&quot;&gt;&lt;td style=&quot;border-color: var(--border-color);&quot; height=&quot;25&quot;&gt;T02.01&lt;/td&gt;&lt;/tr&gt;&lt;tr style=&quot;border-color: var(--border-color);&quot;&gt;&lt;/tr&gt;&lt;/tbody&gt;&lt;/table&gt;&lt;p&gt;&lt;/p&gt;" style="html=1;outlineConnect=0;align=center;dashed=0;shape=mxgraph.pid2inst.indicator;mounting=room;overflow=fill;indType=inst" parent="1" vertex="1">
          <mxGeometry x="640" y="610" width="80" height="140" as="geometry" />
        </mxCell>
        <mxCell id="SDcIFEVYOIYipMuue3Xe-55" value="" style="edgeStyle=none;orthogonalLoop=1;jettySize=auto;html=1;rounded=0;strokeColor=default;endArrow=none;endFill=0;entryX=-0.002;entryY=0.698;entryDx=0;entryDy=0;entryPerimeter=0;" parent="1" target="SDcIFEVYOIYipMuue3Xe-8" edge="1">
          <mxGeometry width="100" relative="1" as="geometry">
            <mxPoint x="450" y="750" as="sourcePoint" />
            <mxPoint x="550" y="750" as="targetPoint" />
            <Array as="points" />
          </mxGeometry>
        </mxCell>
        <mxCell id="SDcIFEVYOIYipMuue3Xe-56" value="&lt;font style=&quot;font-size: 17px;&quot;&gt;V01.02&lt;/font&gt;" style="verticalLabelPosition=bottom;align=center;html=1;verticalAlign=top;pointerEvents=1;dashed=0;shape=mxgraph.pid2valves.valve;valveType=gate;actuator=motor" parent="1" vertex="1">
          <mxGeometry x="1290" y="800" width="100" height="100" as="geometry" />
        </mxCell>
        <mxCell id="SDcIFEVYOIYipMuue3Xe-58" value="" style="edgeStyle=none;orthogonalLoop=1;jettySize=auto;html=1;rounded=0;strokeColor=default;endArrow=none;endFill=0;entryX=0;entryY=0.7;entryDx=0;entryDy=0;entryPerimeter=0;" parent="1" target="SDcIFEVYOIYipMuue3Xe-56" edge="1">
          <mxGeometry width="100" relative="1" as="geometry">
            <mxPoint x="1217.5" y="780" as="sourcePoint" />
            <mxPoint x="1227.5" y="870" as="targetPoint" />
            <Array as="points">
              <mxPoint x="1217.5" y="870" />
            </Array>
          </mxGeometry>
        </mxCell>
        <mxCell id="SDcIFEVYOIYipMuue3Xe-59" value="" style="edgeStyle=none;orthogonalLoop=1;jettySize=auto;html=1;rounded=0;strokeColor=default;endArrow=open;endFill=0;endSize=10;" parent="1" edge="1">
          <mxGeometry width="100" relative="1" as="geometry">
            <mxPoint x="1390" y="870" as="sourcePoint" />
            <mxPoint x="1610" y="870" as="targetPoint" />
            <Array as="points" />
          </mxGeometry>
        </mxCell>
        <mxCell id="SDcIFEVYOIYipMuue3Xe-60" value="" style="edgeStyle=none;orthogonalLoop=1;jettySize=auto;html=1;rounded=0;strokeColor=default;endArrow=none;endFill=0;" parent="1" edge="1">
          <mxGeometry width="100" relative="1" as="geometry">
            <mxPoint x="1109.75" y="790" as="sourcePoint" />
            <mxPoint x="1110" y="850" as="targetPoint" />
            <Array as="points" />
          </mxGeometry>
        </mxCell>
        <mxCell id="SDcIFEVYOIYipMuue3Xe-61" value="" style="edgeStyle=none;orthogonalLoop=1;jettySize=auto;html=1;rounded=0;strokeColor=default;endArrow=open;endFill=0;jumpSize=6;strokeWidth=1;endSize=10;entryX=0;entryY=0.5;entryDx=0;entryDy=0;entryPerimeter=0;" parent="1" edge="1" target="MP5khF3ZVa4wdiw9YIFh-1">
          <mxGeometry width="100" relative="1" as="geometry">
            <mxPoint x="1109.64" y="950" as="sourcePoint" />
            <mxPoint x="1110" y="1030" as="targetPoint" />
            <Array as="points">
              <mxPoint x="1110" y="1060" />
            </Array>
          </mxGeometry>
        </mxCell>
        <mxCell id="SDcIFEVYOIYipMuue3Xe-64" value="" style="edgeStyle=orthogonalEdgeStyle;rounded=0;jumpSize=6;orthogonalLoop=1;jettySize=auto;html=1;strokeColor=default;strokeWidth=1;endArrow=none;endFill=0;" parent="1" target="SDcIFEVYOIYipMuue3Xe-10" edge="1">
          <mxGeometry relative="1" as="geometry">
            <mxPoint x="1198.75" y="110.00000000000011" as="sourcePoint" />
          </mxGeometry>
        </mxCell>
        <mxCell id="SDcIFEVYOIYipMuue3Xe-68" value="&lt;font style=&quot;font-size: 17px;&quot;&gt;M01.01&lt;/font&gt;" style="text;html=1;align=center;verticalAlign=middle;resizable=0;points=[];autosize=1;strokeColor=none;fillColor=none;" parent="1" vertex="1">
          <mxGeometry x="1070" y="30" width="80" height="30" as="geometry" />
        </mxCell>
        <mxCell id="SDcIFEVYOIYipMuue3Xe-77" value="&lt;table cellpadding=&quot;4&quot; cellspacing=&quot;0&quot; border=&quot;0&quot; style=&quot;width: 100%; height: 100%; font-size: 17px;&quot;&gt;&lt;tbody&gt;&lt;tr&gt;&lt;td&gt;&lt;font style=&quot;font-size: 17px;&quot;&gt;LM&lt;/font&gt;&lt;/td&gt;&lt;/tr&gt;&lt;tr&gt;&lt;td&gt;L01.02&lt;/td&gt;&lt;/tr&gt;&lt;/tbody&gt;&lt;/table&gt; " style="html=1;outlineConnect=0;align=center;dashed=0;aspect=fixed;shape=mxgraph.pid2inst.discInst;mounting=room" parent="1" vertex="1">
          <mxGeometry x="985" y="430" width="79" height="79" as="geometry" />
        </mxCell>
        <mxCell id="SDcIFEVYOIYipMuue3Xe-78" value="&lt;table cellpadding=&quot;4&quot; cellspacing=&quot;0&quot; border=&quot;0&quot; style=&quot;width: 100%; height: 100%; font-size: 17px;&quot;&gt;&lt;tbody&gt;&lt;tr&gt;&lt;td&gt;LC&lt;/td&gt;&lt;/tr&gt;&lt;tr&gt;&lt;td&gt;L01.01&lt;/td&gt;&lt;/tr&gt;&lt;/tbody&gt;&lt;/table&gt; " style="html=1;outlineConnect=0;align=center;dashed=0;aspect=fixed;shape=mxgraph.pid2inst.discInst;mounting=room" parent="1" vertex="1">
          <mxGeometry x="1156" y="430" width="79" height="79" as="geometry" />
        </mxCell>
        <mxCell id="SDcIFEVYOIYipMuue3Xe-79" value="&lt;p style=&quot;line-height: 100%; font-size: 17px;&quot;&gt;&lt;/p&gt;&lt;table cellpadding=&quot;0&quot; cellspacing=&quot;0&quot; style=&quot;width: 100%; height: 100%; font-size: 17px;&quot;&gt;&lt;tbody&gt;&lt;tr&gt;&lt;td height=&quot;25&quot;&gt;&lt;font style=&quot;font-size: 17px;&quot;&gt;FICQ&lt;/font&gt;&lt;/td&gt;&lt;/tr&gt;&lt;tr&gt;&lt;td height=&quot;25&quot;&gt;F02.01&lt;/td&gt;&lt;/tr&gt;&lt;tr&gt;&lt;td valign=&quot;bottom&quot;&gt;&lt;/td&gt;&lt;/tr&gt;&lt;/tbody&gt;&lt;/table&gt;&lt;p&gt;&lt;/p&gt;" style="html=1;outlineConnect=0;align=center;dashed=0;shape=mxgraph.pid2inst.indicator;mounting=room;overflow=fill;indType=inst" parent="1" vertex="1">
          <mxGeometry x="850" y="610" width="80" height="140" as="geometry" />
        </mxCell>
        <mxCell id="SDcIFEVYOIYipMuue3Xe-80" value="&lt;p style=&quot;line-height: 100%; font-size: 17px;&quot;&gt;&lt;/p&gt;&lt;table cellpadding=&quot;0&quot; cellspacing=&quot;0&quot; style=&quot;width: 100%; height: 100%; font-size: 17px;&quot;&gt;&lt;tbody&gt;&lt;tr&gt;&lt;td height=&quot;25&quot;&gt;FIQ&lt;/td&gt;&lt;/tr&gt;&lt;tr&gt;&lt;td height=&quot;25&quot;&gt;F01.02&lt;/td&gt;&lt;/tr&gt;&lt;tr&gt;&lt;td valign=&quot;bottom&quot;&gt;&lt;/td&gt;&lt;/tr&gt;&lt;/tbody&gt;&lt;/table&gt;&lt;p&gt;&lt;/p&gt;" style="html=1;outlineConnect=0;align=center;dashed=0;shape=mxgraph.pid2inst.indicator;mounting=room;overflow=fill;indType=inst" parent="1" vertex="1">
          <mxGeometry x="1420" y="730" width="80" height="140" as="geometry" />
        </mxCell>
        <mxCell id="SDcIFEVYOIYipMuue3Xe-81" value="&lt;p style=&quot;line-height: 100%; font-size: 17px;&quot;&gt;&lt;/p&gt;&lt;table cellpadding=&quot;0&quot; cellspacing=&quot;0&quot; style=&quot;width: 100%; height: 100%; font-size: 17px;&quot;&gt;&lt;tbody&gt;&lt;tr&gt;&lt;td height=&quot;25&quot;&gt;&lt;font style=&quot;font-size: 17px;&quot;&gt;TC&lt;/font&gt;&lt;/td&gt;&lt;/tr&gt;&lt;tr&gt;&lt;td height=&quot;25&quot;&gt;T02.02&lt;/td&gt;&lt;/tr&gt;&lt;tr&gt;&lt;td valign=&quot;bottom&quot;&gt;&lt;/td&gt;&lt;/tr&gt;&lt;/tbody&gt;&lt;/table&gt;&lt;p&gt;&lt;/p&gt;" style="html=1;outlineConnect=0;align=center;dashed=0;shape=mxgraph.pid2inst.indicator;mounting=room;overflow=fill;indType=inst" parent="1" vertex="1">
          <mxGeometry x="680" y="380" width="80" height="110" as="geometry" />
        </mxCell>
        <mxCell id="SDcIFEVYOIYipMuue3Xe-82" value="&lt;p style=&quot;line-height: 100%; font-size: 17px;&quot;&gt;&lt;/p&gt;&lt;table cellpadding=&quot;0&quot; cellspacing=&quot;0&quot; style=&quot;width: 100%; height: 100%; font-size: 17px;&quot;&gt;&lt;tbody&gt;&lt;tr&gt;&lt;td height=&quot;25&quot;&gt;&lt;font style=&quot;font-size: 17px;&quot;&gt;FICQ&lt;/font&gt;&lt;/td&gt;&lt;/tr&gt;&lt;tr&gt;&lt;td height=&quot;25&quot;&gt;F01.01&lt;/td&gt;&lt;/tr&gt;&lt;tr&gt;&lt;td valign=&quot;bottom&quot;&gt;&lt;/td&gt;&lt;/tr&gt;&lt;/tbody&gt;&lt;/table&gt;&lt;p&gt;&lt;/p&gt;" style="html=1;outlineConnect=0;align=center;dashed=0;shape=mxgraph.pid2inst.indicator;mounting=room;overflow=fill;indType=inst" parent="1" vertex="1">
          <mxGeometry x="680" y="210" width="80" height="110" as="geometry" />
        </mxCell>
        <mxCell id="SDcIFEVYOIYipMuue3Xe-86" style="edgeStyle=orthogonalEdgeStyle;rounded=0;jumpSize=6;orthogonalLoop=1;jettySize=auto;html=1;exitX=0;exitY=0.5;exitDx=0;exitDy=0;strokeColor=default;strokeWidth=1;fontSize=17;endArrow=none;endFill=0;" parent="1" source="SDcIFEVYOIYipMuue3Xe-83" edge="1">
          <mxGeometry relative="1" as="geometry">
            <mxPoint x="1110" y="220.57142857142856" as="targetPoint" />
          </mxGeometry>
        </mxCell>
        <mxCell id="SDcIFEVYOIYipMuue3Xe-83" value="&lt;table cellpadding=&quot;4&quot; cellspacing=&quot;0&quot; border=&quot;0&quot; style=&quot;width: 100%; height: 100%; font-size: 17px;&quot;&gt;&lt;tbody&gt;&lt;tr&gt;&lt;td&gt;&lt;font style=&quot;font-size: 17px;&quot;&gt;SI&lt;/font&gt;&lt;/td&gt;&lt;/tr&gt;&lt;tr&gt;&lt;td&gt;S01.01&lt;/td&gt;&lt;/tr&gt;&lt;/tbody&gt;&lt;/table&gt; " style="html=1;outlineConnect=0;align=center;dashed=0;aspect=fixed;shape=mxgraph.pid2inst.discInst;mounting=room" parent="1" vertex="1">
          <mxGeometry x="1200" y="181" width="79" height="79" as="geometry" />
        </mxCell>
        <mxCell id="SDcIFEVYOIYipMuue3Xe-84" value="&lt;table cellpadding=&quot;4&quot; cellspacing=&quot;0&quot; border=&quot;0&quot; style=&quot;width: 100%; height: 100%; font-size: 17px;&quot;&gt;&lt;tbody&gt;&lt;tr&gt;&lt;td&gt;&lt;font style=&quot;font-size: 17px;&quot;&gt;TI&lt;/font&gt;&lt;/td&gt;&lt;/tr&gt;&lt;tr&gt;&lt;td&gt;T01.02&lt;/td&gt;&lt;/tr&gt;&lt;/tbody&gt;&lt;/table&gt; " style="html=1;outlineConnect=0;align=center;dashed=0;aspect=fixed;shape=mxgraph.pid2inst.discInst;mounting=room" parent="1" vertex="1">
          <mxGeometry x="1200" y="70.5" width="79" height="79" as="geometry" />
        </mxCell>
        <mxCell id="SDcIFEVYOIYipMuue3Xe-87" value="" style="edgeStyle=none;orthogonalLoop=1;jettySize=auto;html=1;rounded=0;strokeColor=default;strokeWidth=1;fontSize=17;endArrow=none;endFill=0;jumpSize=6;" parent="1" edge="1">
          <mxGeometry width="100" relative="1" as="geometry">
            <mxPoint x="450" y="900" as="sourcePoint" />
            <mxPoint x="510" y="900" as="targetPoint" />
            <Array as="points" />
          </mxGeometry>
        </mxCell>
        <mxCell id="SDcIFEVYOIYipMuue3Xe-90" value="A01.01" style="text;html=1;align=center;verticalAlign=middle;resizable=0;points=[];autosize=1;strokeColor=none;fillColor=none;fontSize=17;" parent="1" vertex="1">
          <mxGeometry x="1270" y="650" width="80" height="30" as="geometry" />
        </mxCell>
        <mxCell id="SDcIFEVYOIYipMuue3Xe-91" value="V01.03" style="text;html=1;align=center;verticalAlign=middle;resizable=0;points=[];autosize=1;strokeColor=none;fillColor=none;fontSize=17;" parent="1" vertex="1">
          <mxGeometry x="1010" y="885" width="80" height="30" as="geometry" />
        </mxCell>
        <mxCell id="SDcIFEVYOIYipMuue3Xe-92" value="&lt;font style=&quot;font-size: 23px;&quot;&gt;VYSTUP&lt;br style=&quot;font-size: 23px;&quot;&gt;STUDENA VODA&lt;br style=&quot;font-size: 23px;&quot;&gt;&lt;/font&gt;" style="text;html=1;align=center;verticalAlign=middle;resizable=0;points=[];autosize=1;strokeColor=none;fillColor=none;fontSize=23;" parent="1" vertex="1">
          <mxGeometry x="110" y="410" width="200" height="70" as="geometry" />
        </mxCell>
        <mxCell id="SDcIFEVYOIYipMuue3Xe-93" value="&lt;font style=&quot;font-size: 23px;&quot;&gt;VSTUP&lt;br style=&quot;font-size: 23px;&quot;&gt;TEPLA VODA&lt;br style=&quot;font-size: 23px;&quot;&gt;&lt;/font&gt;" style="text;html=1;align=center;verticalAlign=middle;resizable=0;points=[];autosize=1;strokeColor=none;fillColor=none;fontSize=23;" parent="1" vertex="1">
          <mxGeometry x="15" y="670" width="170" height="70" as="geometry" />
        </mxCell>
        <mxCell id="SDcIFEVYOIYipMuue3Xe-94" value="&lt;font style=&quot;font-size: 23px;&quot;&gt;VSTUP&lt;br style=&quot;font-size: 23px;&quot;&gt;&amp;nbsp;KAPALINA&lt;/font&gt;" style="text;html=1;align=center;verticalAlign=middle;resizable=0;points=[];autosize=1;strokeColor=none;fillColor=none;fontSize=23;" parent="1" vertex="1">
          <mxGeometry x="510" y="230" width="140" height="70" as="geometry" />
        </mxCell>
        <mxCell id="SDcIFEVYOIYipMuue3Xe-95" value="&lt;span style=&quot;font-size: 23px;&quot;&gt;VYSTUP&lt;br style=&quot;font-size: 23px;&quot;&gt;PASTERIZOVANA&lt;br style=&quot;font-size: 23px;&quot;&gt;KAPALINA&lt;br style=&quot;font-size: 23px;&quot;&gt;&lt;/span&gt;" style="text;html=1;align=center;verticalAlign=middle;resizable=0;points=[];autosize=1;strokeColor=none;fillColor=none;fontSize=23;" parent="1" vertex="1">
          <mxGeometry x="1424" y="880" width="210" height="100" as="geometry" />
        </mxCell>
        <mxCell id="SDcIFEVYOIYipMuue3Xe-96" value="" style="edgeStyle=none;orthogonalLoop=1;jettySize=auto;html=1;rounded=0;strokeColor=default;strokeWidth=1;fontSize=30;endArrow=none;endFill=0;jumpSize=6;" parent="1" edge="1">
          <mxGeometry width="100" relative="1" as="geometry">
            <mxPoint x="1510" y="520" as="sourcePoint" />
            <mxPoint x="1510" y="460" as="targetPoint" />
            <Array as="points" />
          </mxGeometry>
        </mxCell>
        <mxCell id="SDcIFEVYOIYipMuue3Xe-97" value="" style="edgeStyle=isometricEdgeStyle;orthogonalLoop=1;jettySize=auto;html=1;rounded=0;strokeColor=default;strokeWidth=1;fontSize=30;endArrow=none;endFill=0;jumpSize=6;exitX=0.493;exitY=0.116;exitDx=0;exitDy=0;exitPerimeter=0;" parent="1" source="SDcIFEVYOIYipMuue3Xe-9" edge="1">
          <mxGeometry width="100" relative="1" as="geometry">
            <mxPoint x="1480" y="440" as="sourcePoint" />
            <mxPoint x="1480" y="380" as="targetPoint" />
          </mxGeometry>
        </mxCell>
        <mxCell id="SDcIFEVYOIYipMuue3Xe-98" value="" style="edgeStyle=none;orthogonalLoop=1;jettySize=auto;html=1;rounded=0;strokeColor=default;strokeWidth=1;fontSize=30;endArrow=none;endFill=0;jumpSize=6;" parent="1" edge="1">
          <mxGeometry width="100" relative="1" as="geometry">
            <mxPoint x="1479.74" y="380" as="sourcePoint" />
            <mxPoint x="1479.74" y="350" as="targetPoint" />
            <Array as="points" />
          </mxGeometry>
        </mxCell>
        <mxCell id="SDcIFEVYOIYipMuue3Xe-100" value="" style="edgeStyle=none;orthogonalLoop=1;jettySize=auto;html=1;rounded=0;strokeColor=default;strokeWidth=1;fontSize=30;endArrow=none;endFill=0;jumpSize=6;entryX=0.52;entryY=1.023;entryDx=0;entryDy=0;entryPerimeter=0;" parent="1" edge="1" target="SDcIFEVYOIYipMuue3Xe-9">
          <mxGeometry width="100" relative="1" as="geometry">
            <mxPoint x="1248.75" y="574" as="sourcePoint" />
            <mxPoint x="1360" y="520" as="targetPoint" />
            <Array as="points">
              <mxPoint x="1480" y="575" />
            </Array>
          </mxGeometry>
        </mxCell>
        <mxCell id="SDcIFEVYOIYipMuue3Xe-101" value="&lt;font style=&quot;font-size: 17px;&quot;&gt;V01.03&lt;/font&gt;" style="text;html=1;align=center;verticalAlign=middle;resizable=0;points=[];autosize=1;strokeColor=none;fillColor=none;fontSize=30;" parent="1" vertex="1">
          <mxGeometry x="1530" y="464.5" width="80" height="50" as="geometry" />
        </mxCell>
        <mxCell id="PhQY2akaL2cC-IMtG5Wh-3" value="" style="edgeStyle=none;orthogonalLoop=1;jettySize=auto;html=1;rounded=0;strokeColor=default;endArrow=none;endFill=0;exitX=1;exitY=0.5;exitDx=0;exitDy=0;exitPerimeter=0;" edge="1" parent="1" source="72vcIgB0VKJYmMCJM6At-1">
          <mxGeometry width="100" relative="1" as="geometry">
            <mxPoint x="1354" y="304.5" as="sourcePoint" />
            <mxPoint x="1220" y="406" as="targetPoint" />
            <Array as="points">
              <mxPoint x="1220" y="290" />
            </Array>
          </mxGeometry>
        </mxCell>
        <mxCell id="72vcIgB0VKJYmMCJM6At-1" value="Z CISTICI JEDNOTKY" style="html=1;shadow=0;dashed=0;align=center;verticalAlign=middle;shape=mxgraph.arrows2.arrow;dy=0;dx=10;notch=0;rotation=0;direction=west;fontSize=17;" vertex="1" parent="1">
          <mxGeometry x="1410" y="270" width="200" height="40" as="geometry" />
        </mxCell>
        <mxCell id="MP5khF3ZVa4wdiw9YIFh-1" value="DO CISTICI JEDNOTKY" style="html=1;shadow=0;dashed=0;align=center;verticalAlign=middle;shape=mxgraph.arrows2.arrow;dy=0;dx=10;notch=0;rotation=0;direction=east;fontSize=17;" vertex="1" parent="1">
          <mxGeometry x="1160" y="1040" width="210" height="40" as="geometry" />
        </mxCell>
      </root>
    </mxGraphModel>
  </diagram>
  <diagram id="8uOpten8qoUzBmTQhQct" name="StrÃ¡nka-2">
    <mxGraphModel dx="1273" dy="1084" grid="1" gridSize="10" guides="1" tooltips="1" connect="1" arrows="1" fold="1" page="1" pageScale="1" pageWidth="827" pageHeight="1169" math="0" shadow="0">
      <root>
        <mxCell id="0" />
        <mxCell id="1" parent="0" />
        <mxCell id="2A59zDPfg-9ukcbCDGSH-1" value="" style="verticalLabelPosition=bottom;outlineConnect=0;align=center;dashed=0;html=1;verticalAlign=top;shape=mxgraph.pid2misc.column;columnType=common" vertex="1" parent="1">
          <mxGeometry x="870" y="380" width="277.5" height="390" as="geometry" />
        </mxCell>
        <mxCell id="jDyyhKyiR2qV4bZcARgD-1" value="" style="verticalLabelPosition=bottom;outlineConnect=0;align=center;dashed=0;html=1;verticalAlign=top;shape=mxgraph.pid2misc.column;columnType=common" vertex="1" parent="1">
          <mxGeometry x="1220" y="380" width="277.5" height="390" as="geometry" />
        </mxCell>
        <mxCell id="jDyyhKyiR2qV4bZcARgD-2" value="" style="verticalLabelPosition=bottom;outlineConnect=0;align=center;dashed=0;html=1;verticalAlign=top;shape=mxgraph.pid2misc.column;columnType=common" vertex="1" parent="1">
          <mxGeometry x="1580" y="380" width="277.5" height="390" as="geometry" />
        </mxCell>
        <mxCell id="_SsPCkKVGkQ6CGi-FA1c-6" value="&lt;font style=&quot;font-size: 17px;&quot;&gt;V03.05&lt;br&gt;&lt;/font&gt;" style="verticalLabelPosition=bottom;align=center;html=1;verticalAlign=top;pointerEvents=1;dashed=0;shape=mxgraph.pid2valves.valve;valveType=gate;actuator=motor;rotation=0;" vertex="1" parent="1">
          <mxGeometry x="1480" y="120" width="100" height="100" as="geometry" />
        </mxCell>
        <mxCell id="_SsPCkKVGkQ6CGi-FA1c-7" value="&lt;font style=&quot;font-size: 17px;&quot;&gt;V03.03&lt;/font&gt;" style="verticalLabelPosition=bottom;align=center;html=1;verticalAlign=top;pointerEvents=1;dashed=0;shape=mxgraph.pid2valves.valve;valveType=gate;actuator=motor;rotation=0;" vertex="1" parent="1">
          <mxGeometry x="1200" y="120" width="100" height="100" as="geometry" />
        </mxCell>
        <mxCell id="_SsPCkKVGkQ6CGi-FA1c-8" value="" style="endArrow=none;html=1;rounded=0;entryX=0.996;entryY=0.702;entryDx=0;entryDy=0;entryPerimeter=0;" edge="1" parent="1" source="Z_Ua-zTuoUh89xNAIhKs-4">
          <mxGeometry width="50" height="50" relative="1" as="geometry">
            <mxPoint x="909" y="385" as="sourcePoint" />
            <mxPoint x="909.8" y="319.5999999999999" as="targetPoint" />
          </mxGeometry>
        </mxCell>
        <mxCell id="_SsPCkKVGkQ6CGi-FA1c-9" value="" style="endArrow=none;html=1;rounded=0;entryX=0.996;entryY=0.702;entryDx=0;entryDy=0;entryPerimeter=0;" edge="1" parent="1" source="Z_Ua-zTuoUh89xNAIhKs-2">
          <mxGeometry width="50" height="50" relative="1" as="geometry">
            <mxPoint x="1077" y="382" as="sourcePoint" />
            <mxPoint x="1076" y="320" as="targetPoint" />
          </mxGeometry>
        </mxCell>
        <mxCell id="_SsPCkKVGkQ6CGi-FA1c-10" value="" style="endArrow=none;html=1;rounded=0;entryX=-0.007;entryY=0.729;entryDx=0;entryDy=0;entryPerimeter=0;" edge="1" parent="1" target="_SsPCkKVGkQ6CGi-FA1c-7">
          <mxGeometry width="50" height="50" relative="1" as="geometry">
            <mxPoint x="1075" y="219" as="sourcePoint" />
            <mxPoint x="1110" y="190" as="targetPoint" />
            <Array as="points">
              <mxPoint x="1075" y="193" />
            </Array>
          </mxGeometry>
        </mxCell>
        <mxCell id="_SsPCkKVGkQ6CGi-FA1c-11" value="" style="endArrow=none;html=1;rounded=0;entryX=1.025;entryY=0.7;entryDx=0;entryDy=0;entryPerimeter=0;" edge="1" parent="1" target="_SsPCkKVGkQ6CGi-FA1c-7">
          <mxGeometry width="50" height="50" relative="1" as="geometry">
            <mxPoint x="1360" y="220" as="sourcePoint" />
            <mxPoint x="1360" y="250" as="targetPoint" />
            <Array as="points">
              <mxPoint x="1360" y="190" />
            </Array>
          </mxGeometry>
        </mxCell>
        <mxCell id="_SsPCkKVGkQ6CGi-FA1c-12" value="" style="endArrow=none;html=1;rounded=0;entryX=1.015;entryY=0.688;entryDx=0;entryDy=0;entryPerimeter=0;" edge="1" parent="1" source="jDyyhKyiR2qV4bZcARgD-1">
          <mxGeometry width="50" height="50" relative="1" as="geometry">
            <mxPoint x="1230" y="360" as="sourcePoint" />
            <mxPoint x="1361.2" y="321.5" as="targetPoint" />
          </mxGeometry>
        </mxCell>
        <mxCell id="_SsPCkKVGkQ6CGi-FA1c-13" value="" style="endArrow=none;html=1;rounded=0;exitX=0.013;exitY=0.697;exitDx=0;exitDy=0;exitPerimeter=0;" edge="1" parent="1" source="_SsPCkKVGkQ6CGi-FA1c-6">
          <mxGeometry width="50" height="50" relative="1" as="geometry">
            <mxPoint x="1470" y="220" as="sourcePoint" />
            <mxPoint x="1360" y="190" as="targetPoint" />
            <Array as="points">
              <mxPoint x="1470" y="190" />
            </Array>
          </mxGeometry>
        </mxCell>
        <mxCell id="_SsPCkKVGkQ6CGi-FA1c-14" value="" style="endArrow=none;html=1;rounded=0;" edge="1" parent="1">
          <mxGeometry width="50" height="50" relative="1" as="geometry">
            <mxPoint x="1719" y="220" as="sourcePoint" />
            <mxPoint x="1580" y="190" as="targetPoint" />
            <Array as="points">
              <mxPoint x="1719" y="190" />
            </Array>
          </mxGeometry>
        </mxCell>
        <mxCell id="_SsPCkKVGkQ6CGi-FA1c-16" value="" style="endArrow=none;html=1;rounded=0;entryX=1.015;entryY=0.688;entryDx=0;entryDy=0;entryPerimeter=0;" edge="1" parent="1">
          <mxGeometry width="50" height="50" relative="1" as="geometry">
            <mxPoint x="1718.16" y="380" as="sourcePoint" />
            <mxPoint x="1718.16" y="320" as="targetPoint" />
          </mxGeometry>
        </mxCell>
        <mxCell id="Ep_qkRij--P5A8CMkmSF-1" value="&lt;font style=&quot;font-size: 17px;&quot;&gt;P03.01&lt;/font&gt;" style="shape=mxgraph.pid.pumps_-_iso.pump_(liquid);html=1;pointerEvents=1;align=center;verticalLabelPosition=bottom;verticalAlign=top;dashed=0;" vertex="1" parent="1">
          <mxGeometry x="1940" y="910" width="100" height="100" as="geometry" />
        </mxCell>
        <mxCell id="q1ylk6biMqRCIYnXZT8n-1" value="&lt;p style=&quot;line-height: 100%; font-size: 17px;&quot;&gt;&lt;/p&gt;&lt;table cellpadding=&quot;0&quot; cellspacing=&quot;0&quot; style=&quot;width: 100%; height: 100%; font-size: 17px;&quot;&gt;&lt;tbody&gt;&lt;tr&gt;&lt;td height=&quot;25&quot;&gt;&lt;font style=&quot;font-size: 17px;&quot;&gt;FIC&lt;/font&gt;&lt;/td&gt;&lt;/tr&gt;&lt;tr&gt;&lt;td height=&quot;25&quot;&gt;F03.01&lt;br&gt;&lt;/td&gt;&lt;/tr&gt;&lt;tr&gt;&lt;td valign=&quot;bottom&quot;&gt;&lt;/td&gt;&lt;/tr&gt;&lt;/tbody&gt;&lt;/table&gt;&lt;p&gt;&lt;/p&gt;" style="html=1;outlineConnect=0;align=center;dashed=0;shape=mxgraph.pid2inst.indicator;mounting=room;overflow=fill;indType=inst" vertex="1" parent="1">
          <mxGeometry x="1950" y="80" width="80" height="110" as="geometry" />
        </mxCell>
        <mxCell id="q1ylk6biMqRCIYnXZT8n-2" value="" style="endArrow=none;html=1;rounded=0;entryX=0.468;entryY=1;entryDx=0;entryDy=0;entryPerimeter=0;exitX=-0.006;exitY=0.697;exitDx=0;exitDy=0;exitPerimeter=0;" edge="1" parent="1" target="2A59zDPfg-9ukcbCDGSH-1">
          <mxGeometry width="50" height="50" relative="1" as="geometry">
            <mxPoint x="1000.3000000000002" y="819.4000000000001" as="sourcePoint" />
            <mxPoint x="1210" y="850" as="targetPoint" />
          </mxGeometry>
        </mxCell>
        <mxCell id="q1ylk6biMqRCIYnXZT8n-3" value="" style="endArrow=none;html=1;rounded=0;entryX=0.468;entryY=1;entryDx=0;entryDy=0;entryPerimeter=0;exitX=-0.006;exitY=0.697;exitDx=0;exitDy=0;exitPerimeter=0;" edge="1" parent="1">
          <mxGeometry width="50" height="50" relative="1" as="geometry">
            <mxPoint x="1310" y="819" as="sourcePoint" />
            <mxPoint x="1310" y="770" as="targetPoint" />
          </mxGeometry>
        </mxCell>
        <mxCell id="q1ylk6biMqRCIYnXZT8n-4" value="" style="endArrow=none;html=1;rounded=0;entryX=0.468;entryY=1;entryDx=0;entryDy=0;entryPerimeter=0;" edge="1" parent="1">
          <mxGeometry width="50" height="50" relative="1" as="geometry">
            <mxPoint x="1447" y="820" as="sourcePoint" />
            <mxPoint x="1446" y="766" as="targetPoint" />
          </mxGeometry>
        </mxCell>
        <mxCell id="q1ylk6biMqRCIYnXZT8n-5" value="" style="endArrow=none;html=1;rounded=0;exitX=1.009;exitY=0.679;exitDx=0;exitDy=0;exitPerimeter=0;entryX=1.009;entryY=0.698;entryDx=0;entryDy=0;entryPerimeter=0;" edge="1" parent="1">
          <mxGeometry width="50" height="50" relative="1" as="geometry">
            <mxPoint x="1312.1000000000001" y="920.8999999999999" as="sourcePoint" />
            <mxPoint x="1000.2000000000003" y="920.8999999999999" as="targetPoint" />
            <Array as="points">
              <mxPoint x="1312" y="960" />
              <mxPoint x="1000" y="960" />
            </Array>
          </mxGeometry>
        </mxCell>
        <mxCell id="q1ylk6biMqRCIYnXZT8n-6" value="" style="endArrow=none;html=1;rounded=0;entryX=0.468;entryY=1;entryDx=0;entryDy=0;entryPerimeter=0;exitX=-0.006;exitY=0.697;exitDx=0;exitDy=0;exitPerimeter=0;" edge="1" parent="1">
          <mxGeometry width="50" height="50" relative="1" as="geometry">
            <mxPoint x="1718.16" y="820" as="sourcePoint" />
            <mxPoint x="1718.16" y="771" as="targetPoint" />
          </mxGeometry>
        </mxCell>
        <mxCell id="q1ylk6biMqRCIYnXZT8n-8" value="" style="endArrow=none;html=1;rounded=0;entryX=0;entryY=0.5;entryDx=0;entryDy=0;entryPerimeter=0;" edge="1" parent="1" target="Ep_qkRij--P5A8CMkmSF-1">
          <mxGeometry width="50" height="50" relative="1" as="geometry">
            <mxPoint x="1720" y="960" as="sourcePoint" />
            <mxPoint x="1910" y="810" as="targetPoint" />
          </mxGeometry>
        </mxCell>
        <mxCell id="q1DearyNHygYBBXI_kLi-1" value="&lt;font style=&quot;font-size: 17px;&quot;&gt;V03.06&lt;br&gt;&lt;/font&gt;" style="verticalLabelPosition=middle;align=left;html=1;verticalAlign=middle;pointerEvents=1;dashed=0;shape=mxgraph.pid2valves.valve;valveType=gate;actuator=motor;rotation=0;direction=south;labelPosition=right;" vertex="1" parent="1">
          <mxGeometry x="1691" y="220" width="100" height="100" as="geometry" />
        </mxCell>
        <mxCell id="Z_Ua-zTuoUh89xNAIhKs-1" value="&lt;font style=&quot;font-size: 17px;&quot;&gt;V03.07&lt;br&gt;&lt;/font&gt;" style="verticalLabelPosition=middle;align=left;html=1;verticalAlign=middle;pointerEvents=1;dashed=0;shape=mxgraph.pid2valves.valve;valveType=gate;actuator=motor;rotation=0;direction=south;labelPosition=right;" vertex="1" parent="1">
          <mxGeometry x="1330" y="220" width="100" height="100" as="geometry" />
        </mxCell>
        <mxCell id="Z_Ua-zTuoUh89xNAIhKs-3" value="" style="endArrow=none;html=1;rounded=0;entryX=0.996;entryY=0.702;entryDx=0;entryDy=0;entryPerimeter=0;" edge="1" parent="1" target="Z_Ua-zTuoUh89xNAIhKs-2">
          <mxGeometry width="50" height="50" relative="1" as="geometry">
            <mxPoint x="1077" y="382" as="sourcePoint" />
            <mxPoint x="1076" y="320" as="targetPoint" />
          </mxGeometry>
        </mxCell>
        <mxCell id="Z_Ua-zTuoUh89xNAIhKs-2" value="&lt;font style=&quot;font-size: 17px;&quot;&gt;V03.02&lt;br&gt;&lt;/font&gt;" style="verticalLabelPosition=middle;align=left;html=1;verticalAlign=middle;pointerEvents=1;dashed=0;shape=mxgraph.pid2valves.valve;valveType=gate;actuator=motor;rotation=0;direction=south;labelPosition=right;" vertex="1" parent="1">
          <mxGeometry x="1047.5" y="220" width="100" height="100" as="geometry" />
        </mxCell>
        <mxCell id="Z_Ua-zTuoUh89xNAIhKs-5" value="" style="endArrow=none;html=1;rounded=0;entryX=0.996;entryY=0.702;entryDx=0;entryDy=0;entryPerimeter=0;" edge="1" parent="1" target="Z_Ua-zTuoUh89xNAIhKs-4">
          <mxGeometry width="50" height="50" relative="1" as="geometry">
            <mxPoint x="909" y="385" as="sourcePoint" />
            <mxPoint x="909.8" y="319.5999999999999" as="targetPoint" />
          </mxGeometry>
        </mxCell>
        <mxCell id="Z_Ua-zTuoUh89xNAIhKs-4" value="&lt;font style=&quot;font-size: 17px;&quot;&gt;V03.01&lt;br&gt;&lt;/font&gt;" style="verticalLabelPosition=middle;align=left;html=1;verticalAlign=middle;pointerEvents=1;dashed=0;shape=mxgraph.pid2valves.valve;valveType=gate;actuator=motor;rotation=0;direction=south;labelPosition=right;" vertex="1" parent="1">
          <mxGeometry x="880" y="220" width="100" height="100" as="geometry" />
        </mxCell>
        <mxCell id="Z_Ua-zTuoUh89xNAIhKs-6" value="&lt;font style=&quot;font-size: 17px;&quot;&gt;V03.07&lt;br&gt;&lt;/font&gt;" style="verticalLabelPosition=middle;align=left;html=1;verticalAlign=middle;pointerEvents=1;dashed=0;shape=mxgraph.pid2valves.valve;valveType=gate;actuator=motor;rotation=0;direction=south;labelPosition=right;" vertex="1" parent="1">
          <mxGeometry x="970" y="820" width="100" height="100" as="geometry" />
        </mxCell>
        <mxCell id="Z_Ua-zTuoUh89xNAIhKs-7" value="&lt;font style=&quot;font-size: 17px;&quot;&gt;V03.08&lt;br&gt;&lt;/font&gt;" style="verticalLabelPosition=middle;align=left;html=1;verticalAlign=middle;pointerEvents=1;dashed=0;shape=mxgraph.pid2valves.valve;valveType=gate;actuator=motor;rotation=0;direction=south;labelPosition=right;" vertex="1" parent="1">
          <mxGeometry x="1280" y="820" width="100" height="100" as="geometry" />
        </mxCell>
        <mxCell id="Z_Ua-zTuoUh89xNAIhKs-8" value="&lt;font style=&quot;font-size: 17px;&quot;&gt;V03.09&lt;br&gt;&lt;/font&gt;" style="verticalLabelPosition=middle;align=left;html=1;verticalAlign=middle;pointerEvents=1;dashed=0;shape=mxgraph.pid2valves.valve;valveType=gate;actuator=motor;rotation=0;direction=south;labelPosition=right;" vertex="1" parent="1">
          <mxGeometry x="1420" y="820" width="100" height="100" as="geometry" />
        </mxCell>
        <mxCell id="Z_Ua-zTuoUh89xNAIhKs-10" value="" style="endArrow=none;html=1;rounded=0;exitX=1.009;exitY=0.679;exitDx=0;exitDy=0;exitPerimeter=0;entryX=1.001;entryY=0.684;entryDx=0;entryDy=0;entryPerimeter=0;" edge="1" parent="1" target="Z_Ua-zTuoUh89xNAIhKs-7">
          <mxGeometry width="50" height="50" relative="1" as="geometry">
            <mxPoint x="1722" y="921" as="sourcePoint" />
            <mxPoint x="1312" y="920" as="targetPoint" />
            <Array as="points">
              <mxPoint x="1722" y="960" />
              <mxPoint x="1312" y="960" />
            </Array>
          </mxGeometry>
        </mxCell>
        <mxCell id="Z_Ua-zTuoUh89xNAIhKs-9" value="&lt;font style=&quot;font-size: 17px;&quot;&gt;V03.10&lt;br&gt;&lt;/font&gt;" style="verticalLabelPosition=middle;align=left;html=1;verticalAlign=middle;pointerEvents=1;dashed=0;shape=mxgraph.pid2valves.valve;valveType=gate;actuator=motor;rotation=0;direction=south;labelPosition=right;" vertex="1" parent="1">
          <mxGeometry x="1690" y="820" width="100" height="100" as="geometry" />
        </mxCell>
        <mxCell id="7G-h1x0X8_5Msh0QRrby-1" value="&lt;font style=&quot;font-size: 30px;&quot;&gt;VYSTUP&lt;br&gt;POUZITA VODA&lt;br&gt;&lt;/font&gt;" style="text;html=1;align=center;verticalAlign=middle;resizable=0;points=[];autosize=1;strokeColor=none;fillColor=none;fontSize=17;" vertex="1" parent="1">
          <mxGeometry x="1460" y="995" width="240" height="90" as="geometry" />
        </mxCell>
        <mxCell id="TMiU96EeeBSuRd9d-H9V-1" value="&lt;font style=&quot;font-size: 30px;&quot;&gt;VSTUP&lt;br&gt;CISTA VODA&lt;br&gt;&lt;/font&gt;" style="text;html=1;align=center;verticalAlign=middle;resizable=0;points=[];autosize=1;strokeColor=none;fillColor=none;fontSize=17;" vertex="1" parent="1">
          <mxGeometry x="915" y="60" width="200" height="90" as="geometry" />
        </mxCell>
        <mxCell id="euxWd9xFVS5cnCjn7bux-1" value="T03.01&lt;br&gt;SKLADOVACI NADRZ&lt;br&gt;CISTA VODA" style="text;html=1;align=center;verticalAlign=middle;resizable=0;points=[];autosize=1;strokeColor=none;fillColor=none;fontSize=17;" vertex="1" parent="1">
          <mxGeometry x="915" y="549" width="190" height="70" as="geometry" />
        </mxCell>
        <mxCell id="euxWd9xFVS5cnCjn7bux-5" value="T03.02&lt;br&gt;SKLADOVACI NADRZ&lt;br&gt;POUZITA VODA" style="text;html=1;align=center;verticalAlign=middle;resizable=0;points=[];autosize=1;strokeColor=none;fillColor=none;fontSize=17;" vertex="1" parent="1">
          <mxGeometry x="1263.75" y="549" width="190" height="70" as="geometry" />
        </mxCell>
        <mxCell id="euxWd9xFVS5cnCjn7bux-6" value="T03.03&lt;br&gt;SKLADOVACI NADRZ&lt;br&gt;LOUH" style="text;html=1;align=center;verticalAlign=middle;resizable=0;points=[];autosize=1;strokeColor=none;fillColor=none;fontSize=17;" vertex="1" parent="1">
          <mxGeometry x="1623.75" y="549" width="190" height="70" as="geometry" />
        </mxCell>
        <mxCell id="9s4TscqfFOIm6yQ4bmyC-1" value="" style="edgeStyle=none;orthogonalLoop=1;jettySize=auto;html=1;rounded=0;strokeColor=default;endArrow=open;endFill=0;jumpSize=6;strokeWidth=1;endSize=10;" edge="1" parent="1">
          <mxGeometry width="100" relative="1" as="geometry">
            <mxPoint x="910" y="80" as="sourcePoint" />
            <mxPoint x="910.3599999999999" y="220" as="targetPoint" />
            <Array as="points" />
          </mxGeometry>
        </mxCell>
        <mxCell id="9s4TscqfFOIm6yQ4bmyC-2" value="" style="edgeStyle=none;orthogonalLoop=1;jettySize=auto;html=1;rounded=0;strokeColor=default;endArrow=open;endFill=0;jumpSize=6;endSize=10;" edge="1" parent="1">
          <mxGeometry width="100" relative="1" as="geometry">
            <mxPoint x="1450" y="920" as="sourcePoint" />
            <mxPoint x="1450" y="1050" as="targetPoint" />
            <Array as="points" />
          </mxGeometry>
        </mxCell>
        <mxCell id="9s4TscqfFOIm6yQ4bmyC-6" value="" style="edgeStyle=none;orthogonalLoop=1;jettySize=auto;html=1;rounded=0;strokeColor=default;endArrow=open;endFill=0;jumpSize=6;exitX=1;exitY=0.5;exitDx=0;exitDy=0;exitPerimeter=0;endSize=10;entryX=0;entryY=0.5;entryDx=0;entryDy=0;entryPerimeter=0;" edge="1" parent="1" source="Ep_qkRij--P5A8CMkmSF-1" target="E0aIpugiq1B25NRr2z-n-2">
          <mxGeometry width="100" relative="1" as="geometry">
            <mxPoint x="2250" y="860" as="sourcePoint" />
            <mxPoint x="2200" y="960" as="targetPoint" />
            <Array as="points" />
          </mxGeometry>
        </mxCell>
        <mxCell id="6UG1PjLQfRpMKv6BgxUc-1" value="&lt;table cellpadding=&quot;4&quot; cellspacing=&quot;0&quot; border=&quot;0&quot; style=&quot;width: 100%; height: 100%; font-size: 17px;&quot;&gt;&lt;tbody&gt;&lt;tr&gt;&lt;td&gt;&lt;font style=&quot;font-size: 17px;&quot;&gt;LM&lt;/font&gt;&lt;/td&gt;&lt;/tr&gt;&lt;tr&gt;&lt;td&gt;L03.01&lt;/td&gt;&lt;/tr&gt;&lt;/tbody&gt;&lt;/table&gt; " style="html=1;outlineConnect=0;align=center;dashed=0;aspect=fixed;shape=mxgraph.pid2inst.discInst;mounting=room" vertex="1" parent="1">
          <mxGeometry x="880" y="400" width="79" height="79" as="geometry" />
        </mxCell>
        <mxCell id="E0aIpugiq1B25NRr2z-n-2" value="&lt;div style=&quot;&quot;&gt;&lt;span style=&quot;font-size: 18px;&quot;&gt;DO TANK A01.01&lt;/span&gt;&lt;br&gt;&lt;/div&gt;" style="html=1;shadow=0;dashed=0;align=center;verticalAlign=middle;shape=mxgraph.arrows2.arrow;dy=0;dx=10;notch=0;rotation=0;" vertex="1" parent="1">
          <mxGeometry x="2110" y="940" width="150" height="40" as="geometry" />
        </mxCell>
        <mxCell id="E0aIpugiq1B25NRr2z-n-3" value="" style="endArrow=none;html=1;rounded=0;entryX=1;entryY=0.5;entryDx=0;entryDy=0;entryPerimeter=0;" edge="1" parent="1">
          <mxGeometry width="50" height="50" relative="1" as="geometry">
            <mxPoint x="1700" y="190" as="sourcePoint" />
            <mxPoint x="2110" y="190" as="targetPoint" />
          </mxGeometry>
        </mxCell>
        <mxCell id="59tzaVeasaX1H7KpBB8S-1" value="Z TANK A01.01" style="html=1;shadow=0;dashed=0;align=center;verticalAlign=middle;shape=mxgraph.arrows2.arrow;dy=0;dx=10;notch=0;rotation=0;direction=west;fontSize=18;" vertex="1" parent="1">
          <mxGeometry x="2110" y="170" width="150" height="40" as="geometry" />
        </mxCell>
      </root>
    </mxGraphModel>
  </diagram>
</mxfile>
